<svg width="9" height="13" viewBox="0 0 9 13" fill="none" xmlns="http://www.w3.org/2000/svg">
<path d="M4.9222 12.9466V11.7409C5.9302 11.6751 6.73856 11.3753 7.34729 10.8417C7.95602 10.308 8.26038 9.59977 8.26038 8.71695V8.59836C8.26038 7.78142 7.97565 7.13907 7.4062 6.6713C6.83675 6.20354 6.00875 5.90377 4.9222 5.77201V2.94565C5.38038 3.06424 5.7502 3.27507 6.03165 3.57812C6.31311 3.88118 6.45384 4.25012 6.45384 4.68495V4.92212H7.9462V4.56636C7.9462 4.19742 7.8742 3.84495 7.7302 3.50895C7.5833 3.16855 7.37715 2.8573 7.12147 2.58989C6.84605 2.30311 6.52396 2.06581 6.16911 1.88824C5.77615 1.69068 5.35575 1.55407 4.9222 1.48307V0.218124H3.50838V1.44354C3.11223 1.48084 2.72269 1.57055 2.34984 1.71036C1.98329 1.84871 1.66256 2.03318 1.38765 2.26377C1.11275 2.49436 0.893473 2.77107 0.729836 3.09389C0.5662 3.41671 0.484382 3.78895 0.484382 4.21059V4.32918C0.484382 5.11977 0.742927 5.73577 1.26002 6.17718C1.77711 6.6186 2.52656 6.90518 3.50838 7.03695V10.2586C2.93238 10.1268 2.48729 9.86989 2.17311 9.48777C1.85893 9.10565 1.70184 8.59836 1.70184 7.96589V7.72871H0.209473V8.20307C0.209473 8.58518 0.274927 8.96401 0.405836 9.33954C0.536745 9.71507 0.736382 10.0642 1.00475 10.3871C1.27311 10.7099 1.61347 10.9866 2.02584 11.2172C2.4382 11.4478 2.93238 11.6092 3.50838 11.7014V12.9466H4.9222ZM3.50838 5.61389C2.94547 5.50848 2.55602 5.34048 2.34002 5.10989C2.12402 4.8793 2.01602 4.57954 2.01602 4.21059C2.01602 3.82848 2.16002 3.52542 2.44802 3.30142C2.73602 3.07742 3.08947 2.93248 3.50838 2.86659V5.61389V5.61389ZM4.9222 10.3179V7.19507C5.55056 7.30048 6.00875 7.46518 6.29675 7.68918C6.58475 7.91318 6.72875 8.25577 6.72875 8.71695C6.72875 9.16495 6.56838 9.5273 6.24765 9.80401C5.92693 10.0807 5.48511 10.252 4.9222 10.3179Z" fill="#9EBBBD"/>
</svg>
