<svg width="13" height="16" viewBox="0 0 13 16" fill="none" xmlns="http://www.w3.org/2000/svg">
<path d="M9.573 7.729C9.979 7.729 10.357 7.799 10.699 7.938C11.041 8.078 11.338 8.268 11.58 8.507C11.812 8.734 12.018 9.01 12.194 9.327C12.3614 9.62875 12.4978 9.94671 12.601 10.276C12.698 10.588 12.779 10.93 12.843 11.292C12.905 11.651 12.948 11.991 12.969 12.303C12.989 12.61 13 12.927 13 13.248C13 14.084 12.741 14.76 12.232 15.258C11.728 15.75 11.062 16 10.252 16H2.748C1.938 16 1.271 15.75 0.768 15.258C0.259 14.76 0 14.084 0 13.248C0 12.926 0.01 12.608 0.032 12.303C0.052 11.991 0.095 11.651 0.158 11.293C0.221 10.93 0.302 10.588 0.4 10.276C0.5 9.953 0.638 9.633 0.807 9.328C0.983 9.01 1.189 8.734 1.42 8.507C1.663 8.269 1.96 8.077 2.302 7.937C2.644 7.799 3.022 7.729 3.427 7.729C3.587 7.729 3.74 7.796 4.037 7.994C4.22 8.117 4.434 8.258 4.673 8.415C4.877 8.549 5.153 8.674 5.495 8.787C5.828 8.897 6.166 8.954 6.5 8.954C6.84212 8.95264 7.18179 8.89625 7.506 8.787C7.847 8.674 8.124 8.549 8.328 8.415L8.964 7.995C9.26 7.795 9.414 7.729 9.574 7.729H9.573ZM6.598 0C7.63 0 8.522 0.38 9.252 1.129C9.982 1.878 10.352 2.795 10.352 3.853C10.352 4.913 9.982 5.829 9.252 6.578C8.522 7.328 7.629 7.708 6.598 7.708C5.568 7.708 4.674 7.328 3.945 6.578C3.215 5.829 2.845 4.912 2.845 3.853C2.845 2.795 3.215 1.878 3.945 1.129C4.675 0.379 5.567 0 6.598 0Z" fill="#9EBBBD"/>
</svg>
